<?xml version="1.0" encoding="UTF-8" standalone="no"?>
<svg
   xmlns:dc="http://purl.org/dc/elements/1.1/"
   xmlns:cc="http://creativecommons.org/ns#"
   xmlns:rdf="http://www.w3.org/1999/02/22-rdf-syntax-ns#"
   xmlns:svg="http://www.w3.org/2000/svg"
   xmlns="http://www.w3.org/2000/svg"
   id="svg81"
   version="1.1"
   height="1122.51968504"
   width="793.700787402">
  <metadata
     id="metadata85">
    <rdf:RDF>
      <cc:Work
         rdf:about="">
        <dc:format>image/svg+xml</dc:format>
        <dc:type
           rdf:resource="http://purl.org/dc/dcmitype/StillImage" />
        <dc:title></dc:title>
      </cc:Work>
    </rdf:RDF>
  </metadata>
  <desc
     id="desc10">C:\Users\vk9335uy\Desktop\Project\Schematics &amp; Datasheets\Motor Cover\L1_220.DXF - scale = 1.000000, origin = (0.000000, 0.000000), method = file</desc>
  <defs
     id="defs25">
    <marker
       style="overflow:visible"
       refY="0.0"
       refX="0.0"
       orient="auto"
       id="DistanceX">
      <path
         id="path12"
         style="stroke:#000000; stroke-width:0.5"
         d="M 3,-3 L -3,3 M 0,-5 L  0,5" />
    </marker>
    <pattern
       y="0"
       x="0"
       width="8"
       patternUnits="userSpaceOnUse"
       id="Hatch"
       height="8">
      <path
         id="path15"
         stroke-width="0.25"
         stroke="#000000"
         linecap="square"
         d="M8 4 l-4,4" />
      <path
         id="path17"
         stroke-width="0.25"
         stroke="#000000"
         linecap="square"
         d="M6 2 l-4,4" />
      <path
         id="path19"
         stroke-width="0.25"
         stroke="#000000"
         linecap="square"
         d="M4 0 l-4,4" />
    </pattern>
    <symbol
       id="*Model_Space" />
    <symbol
       id="*Paper_Space" />
    <symbol
       id="*Paper_Space0" />
  </defs>
  <g
     id="g79">
    <path
       id="path27"
       style="fill:none;stroke:#000000;stroke-width:0.89999998;stroke-linecap:round"
       d="m 610.01452,926.69928 a 22.677165,22.677165 0 1 0 -45.35433,0 22.677165,22.677165 0 1 0 45.35433,0 z" />
    <path
       id="path29"
       style="fill:none;stroke:#000000;stroke-width:0.89999998;stroke-linecap:round"
       d="m 720.13106,997.46835 a 8.88189,8.88189 0 1 0 -17.76378,0 8.88189,8.88189 0 1 0 17.76378,0 z" />
    <path
       id="path31"
       style="fill:none;stroke:#000000;stroke-width:0.89999998;stroke-linecap:round"
       d="m 472.30743,997.46835 a 8.88189,8.88189 0 1 0 -17.76378,0 8.88189,8.88189 0 1 0 17.76378,0 z" />
    <path
       id="path33"
       style="fill:none;stroke:#000000;stroke-width:0.89999998;stroke-linecap:round"
       d="m 596.21925,748.83995 a 8.88189,8.88189 0 1 0 -17.76378,0 8.88189,8.88189 0 1 0 17.76378,0 z" />
    <path
       id="path35"
       style="fill:none;stroke:#000000;stroke-width:0.89999998;stroke-linecap:round"
       d="m 492.84917,748.83995 v 82.24401" />
    <path
       id="path37"
       style="fill:none;stroke:#000000;stroke-width:0.89999998;stroke-linecap:round"
       d="m 564.97737,748.83995 h -72.1282" />
    <path
       id="path39"
       style="fill:none;stroke:#000000;stroke-width:0.89999998;stroke-linecap:round"
       d="m 681.82554,748.83995 h -72.1282" />
    <path
       id="path41"
       style="fill:none;stroke:#000000;stroke-width:0.89999998;stroke-linecap:round"
       d="m 681.82554,748.83995 v 82.24401" />
    <path
       id="path43"
       style="fill:none;stroke:#000000;stroke-width:0.89999998;stroke-linecap:round"
       d="m 490.70322,1017.0362 a 15.11811,15.11811 0 0 0 -18.25891,-2.9611" />
    <path
       id="path45"
       style="fill:none;stroke:#000000;stroke-width:0.89999998;stroke-linecap:round"
       d="m 453.70442,981.26278 a 18.897638,18.897638 0 0 0 18.73989,32.81232" />
    <path
       id="path47"
       style="fill:none;stroke:#000000;stroke-width:0.89999998;stroke-linecap:round"
       d="m 453.70442,981.26278 a 15.11811,15.11811 0 0 0 6.72667,-17.23102" />
    <path
       id="path49"
       style="fill:none;stroke:#000000;stroke-width:0.89999998;stroke-linecap:round"
       d="m 490.80618,836.25236 a 132.28346,132.28346 0 0 0 -30.37509,127.7794" />
    <path
       id="path51"
       style="fill:none;stroke:#000000;stroke-width:0.89999998;stroke-linecap:round"
       d="m 490.80618,836.25236 a 7.559055,7.559055 0 0 0 2.04299,-5.1684" />
    <path
       id="path53"
       style="fill:none;stroke:#000000;stroke-width:0.89999998;stroke-linecap:round"
       d="m 564.97737,748.83995 a 3.779528,3.779528 0 0 0 3.72666,-3.1496" />
    <path
       id="path55"
       style="fill:none;stroke:#000000;stroke-width:0.89999998;stroke-linecap:round"
       d="m 605.97068,745.69035 a 18.897638,18.897638 0 0 0 -37.26665,0" />
    <path
       id="path57"
       style="fill:none;stroke:#000000;stroke-width:0.89999998;stroke-linecap:round"
       d="m 605.97068,745.69035 a 3.779528,3.779528 0 0 0 3.72666,3.1496" />
    <path
       id="path59"
       style="fill:none;stroke:#000000;stroke-width:0.89999998;stroke-linecap:round"
       d="m 681.82554,831.08396 a 7.559055,7.559055 0 0 0 2.04299,5.1684" />
    <path
       id="path61"
       style="fill:none;stroke:#000000;stroke-width:0.89999998;stroke-linecap:round"
       d="m 714.24363,964.03176 a 132.28346,132.28346 0 0 0 -30.3751,-127.7794" />
    <path
       id="path63"
       style="fill:none;stroke:#000000;stroke-width:0.89999998;stroke-linecap:round"
       d="m 714.24363,964.03176 a 15.11811,15.11811 0 0 0 6.72667,17.23102" />
    <path
       id="path65"
       style="fill:none;stroke:#000000;stroke-width:0.89999998;stroke-linecap:round"
       d="m 702.23041,1014.0751 a 15.11811,15.11811 0 0 0 -18.25891,2.9611" />
    <path
       id="path67"
       style="fill:none;stroke:#000000;stroke-width:0.89999998;stroke-linecap:round"
       d="m 490.70322,1017.0362 a 132.28346,132.28346 0 0 0 193.26828,0" />
    <path
       id="path69"
       style="fill:none;stroke:#000000;stroke-width:0.89999998;stroke-linecap:round"
       d="M 702.23041,1014.0751 A 18.897638,18.897638 0 0 0 720.9703,981.26278" />
  </g>
</svg>
