<?xml version="1.0" encoding="UTF-8" standalone="no"?>
<!-- Created with Inkscape (http://www.inkscape.org/) -->

<svg
   xmlns:dc="http://purl.org/dc/elements/1.1/"
   xmlns:cc="http://creativecommons.org/ns#"
   xmlns:rdf="http://www.w3.org/1999/02/22-rdf-syntax-ns#"
   xmlns:svg="http://www.w3.org/2000/svg"
   xmlns="http://www.w3.org/2000/svg"
   xmlns:sodipodi="http://sodipodi.sourceforge.net/DTD/sodipodi-0.dtd"
   xmlns:inkscape="http://www.inkscape.org/namespaces/inkscape"
   width="210mm"
   height="297mm"
   viewBox="0 0 210 297"
   version="1.1"
   id="svg8"
   inkscape:version="0.92.4 (5da689c313, 2019-01-14)"
   sodipodi:docname="MotorCover093.svg">
  <defs
     id="defs2">
    <marker
       style="overflow:visible"
       refY="0.0"
       refX="0.0"
       orient="auto"
       id="DistanceX">
      <path
         id="path212"
         style="stroke:#000000; stroke-width:0.5"
         d="M 3,-3 L -3,3 M 0,-5 L  0,5" />
    </marker>
    <pattern
       y="0"
       x="0"
       width="8"
       patternUnits="userSpaceOnUse"
       id="Hatch"
       height="8">
      <path
         id="path215"
         stroke-width="0.25"
         stroke="#000000"
         linecap="square"
         d="M8 4 l-4,4" />
      <path
         id="path217"
         stroke-width="0.25"
         stroke="#000000"
         linecap="square"
         d="M6 2 l-4,4" />
      <path
         id="path219"
         stroke-width="0.25"
         stroke="#000000"
         linecap="square"
         d="M4 0 l-4,4" />
    </pattern>
    <symbol
       id="*Model_Space" />
    <symbol
       id="*Paper_Space" />
    <symbol
       id="*Paper_Space0" />
    <marker
       style="overflow:visible"
       refY="0.0"
       refX="0.0"
       orient="auto"
       id="DistanceX-0">
      <path
         id="path412"
         style="stroke:#000000; stroke-width:0.5"
         d="M 3,-3 L -3,3 M 0,-5 L  0,5" />
    </marker>
    <pattern
       y="0"
       x="0"
       width="8"
       patternUnits="userSpaceOnUse"
       id="Hatch-2"
       height="8">
      <path
         id="path415"
         stroke-width="0.25"
         stroke="#000000"
         linecap="square"
         d="M8 4 l-4,4" />
      <path
         id="path417"
         stroke-width="0.25"
         stroke="#000000"
         linecap="square"
         d="M6 2 l-4,4" />
      <path
         id="path419"
         stroke-width="0.25"
         stroke="#000000"
         linecap="square"
         d="M4 0 l-4,4" />
    </pattern>
    <symbol
       id="*Model_Space-8" />
    <symbol
       id="*Paper_Space-2" />
    <symbol
       id="*Paper_Space0-5" />
  </defs>
  <sodipodi:namedview
     id="base"
     pagecolor="#ffffff"
     bordercolor="#666666"
     borderopacity="1.0"
     inkscape:pageopacity="0.0"
     inkscape:pageshadow="2"
     inkscape:zoom="1.979899"
     inkscape:cx="622.01046"
     inkscape:cy="200.45599"
     inkscape:document-units="mm"
     inkscape:current-layer="layer1"
     showgrid="false"
     inkscape:window-width="1920"
     inkscape:window-height="986"
     inkscape:window-x="-11"
     inkscape:window-y="-11"
     inkscape:window-maximized="1" />
  <metadata
     id="metadata5">
    <rdf:RDF>
      <cc:Work
         rdf:about="">
        <dc:format>image/svg+xml</dc:format>
        <dc:type
           rdf:resource="http://purl.org/dc/dcmitype/StillImage" />
        <dc:title></dc:title>
      </cc:Work>
    </rdf:RDF>
  </metadata>
  <g
     inkscape:label="Layer 1"
     inkscape:groupmode="layer"
     id="layer1">
    <path
       inkscape:connector-curvature="0"
       d="m 121.76086,275.65259 a 2.0960519,2.0960519 0 1 0 -4.1921,0 2.0960519,2.0960519 0 1 0 4.1921,0 z"
       style="fill:none;stroke:#000000;stroke-width:0.238125;stroke-linecap:round"
       id="path427" />
    <path
       inkscape:connector-curvature="0"
       d="m 89.640029,210.27561 a 2.1,2.1 0 1 0 -4.199999,0 2.1,2.1 0 1 0 4.199999,0 z"
       style="fill:none;stroke:#000000;stroke-width:0.238125;stroke-linecap:round"
       id="path429" />
    <path
       inkscape:connector-curvature="0"
       d="m 153.91283,210.30244 a 2.1,2.1 0 1 0 -4.2,0 2.1,2.1 0 1 0 4.2,0 z"
       style="fill:none;stroke:#000000;stroke-width:0.238125;stroke-linecap:round"
       id="path431" />
    <path
       inkscape:connector-curvature="0"
       d="m 132.66481,228.81123 a 13,13 0 1 0 -26,0 13,13 0 1 0 26,0 z"
       style="fill:none;stroke:#000000;stroke-width:0.238125;stroke-linecap:round"
       id="path433" />
    <path
       inkscape:connector-curvature="0"
       d="m 144.41267,273.55645 -17.75254,6e-5"
       style="fill:none;stroke:#000000;stroke-width:0.238125;stroke-linecap:round"
       id="path435" />
    <path
       inkscape:connector-curvature="0"
       d="m 112.66947,273.55656 -17.75225,5e-5"
       style="fill:none;stroke:#000000;stroke-width:0.238125;stroke-linecap:round"
       id="path437" />
    <path
       inkscape:connector-curvature="0"
       d="m 94.917162,254.37609 5.8e-5,19.18052"
       style="fill:none;stroke:#000000;stroke-width:0.238125;stroke-linecap:round"
       id="path439" />
    <path
       inkscape:connector-curvature="0"
       d="m 144.41261,254.37596 6e-5,19.18049"
       style="fill:none;stroke:#000000;stroke-width:0.238125;stroke-linecap:round"
       id="path441" />
    <path
       inkscape:connector-curvature="0"
       d="m 126.66013,273.55651 a 1.9999999,1.9999999 0 0 0 -1.9998,2.02747"
       style="fill:none;stroke:#000000;stroke-width:0.238125;stroke-linecap:round"
       id="path443" />
    <path
       inkscape:connector-curvature="0"
       d="m 114.66929,275.58401 a 4.9959897,4.9959897 0 1 0 9.99104,-3e-5"
       style="fill:none;stroke:#000000;stroke-width:0.238125;stroke-linecap:round"
       id="path445" />
    <path
       inkscape:connector-curvature="0"
       d="m 114.66929,275.58401 a 1.9999999,1.9999999 0 0 0 -1.99982,-2.02745"
       style="fill:none;stroke:#000000;stroke-width:0.238125;stroke-linecap:round"
       id="path447" />
    <path
       inkscape:connector-curvature="0"
       d="m 94.917162,254.37609 a 1.9999999,1.9999999 0 0 0 -0.554181,-1.38186"
       style="fill:none;stroke:#000000;stroke-width:0.238125;stroke-linecap:round"
       id="path449" />
    <path
       inkscape:connector-curvature="0"
       d="m 86.601736,217.32937 a 34.999998,34.999998 0 0 0 7.761245,35.66486"
       style="fill:none;stroke:#000000;stroke-width:0.238125;stroke-linecap:round"
       id="path451" />
    <path
       inkscape:connector-curvature="0"
       d="m 86.601736,217.32937 a 1.9999999,1.9999999 0 0 0 -1.084212,-2.4869"
       style="fill:none;stroke:#000000;stroke-width:0.238125;stroke-linecap:round"
       id="path453" />
    <path
       inkscape:connector-curvature="0"
       d="m 90.480451,206.24053 a 4.9951256,4.9951256 0 1 0 -4.962927,8.60194"
       style="fill:none;stroke:#000000;stroke-width:0.238125;stroke-linecap:round"
       id="path455" />
    <path
       inkscape:connector-curvature="0"
       d="m 90.480451,206.24053 a 1.9999999,1.9999999 0 0 0 2.695644,-0.3061"
       style="fill:none;stroke:#000000;stroke-width:0.238125;stroke-linecap:round"
       id="path457" />
    <path
       inkscape:connector-curvature="0"
       d="m 146.167,205.95004 a 34.999998,34.999998 0 0 0 -52.990905,-0.0156"
       style="fill:none;stroke:#000000;stroke-width:0.238125;stroke-linecap:round"
       id="path459" />
    <path
       inkscape:connector-curvature="0"
       d="m 146.167,205.95004 a 1.9999999,1.9999999 0 0 0 2.69445,0.30843"
       style="fill:none;stroke:#000000;stroke-width:0.238125;stroke-linecap:round"
       id="path461" />
    <path
       inkscape:connector-curvature="0"
       d="m 153.82283,214.87206 a 4.9995423,4.9995423 0 1 0 -4.96138,-8.61359"
       style="fill:none;stroke:#000000;stroke-width:0.238125;stroke-linecap:round"
       id="path463" />
    <path
       inkscape:connector-curvature="0"
       d="m 153.82283,214.87206 a 1.9999999,1.9999999 0 0 0 -1.08518,2.48546"
       style="fill:none;stroke:#000000;stroke-width:0.238125;stroke-linecap:round"
       id="path465" />
    <path
       inkscape:connector-curvature="0"
       d="m 144.96678,252.99407 a 34.999998,34.999998 0 0 0 7.77087,-35.63655"
       style="fill:none;stroke:#000000;stroke-width:0.238125;stroke-linecap:round"
       id="path467" />
    <path
       inkscape:connector-curvature="0"
       d="m 144.96678,252.99407 a 1.9999999,1.9999999 0 0 0 -0.55417,1.38189"
       style="fill:none;stroke:#000000;stroke-width:0.238125;stroke-linecap:round"
       id="path469" />
  </g>
</svg>
